<svg width="18" height="22" viewBox="0 0 18 22" fill="none" xmlns="http://www.w3.org/2000/svg">
<path d="M13.4925 4.8361C13.4923 5.79243 13.2007 6.72725 12.6544 7.52235C12.1081 8.31746 11.3317 8.93713 10.4233 9.30301C9.51498 9.6689 8.5155 9.76457 7.55126 9.57792C6.58702 9.39127 5.70134 8.93069 5.0062 8.25441C4.31106 7.57813 3.83768 6.71654 3.64593 5.77857C3.45417 4.8406 3.55265 3.86838 3.92892 2.98486C4.30518 2.10133 4.94232 1.34617 5.75979 0.814876C6.57725 0.283578 7.53831 8.43092e-09 8.52146 0C9.1743 4.21577e-05 9.82075 0.125165 10.4239 0.368224C11.027 0.611284 11.575 0.96752 12.0366 1.41659C12.4982 1.86567 12.8644 2.39878 13.1142 2.9855C13.364 3.57222 13.4925 4.20105 13.4925 4.8361ZM8.52146 11.1024C7.11377 11.1008 5.72119 11.3846 4.43257 11.9358C3.14394 12.4869 1.98757 13.2933 1.03723 14.3035C-0.640338 16.0814 -0.229444 18.9097 1.88279 20.1755C3.87995 21.3685 6.1778 22 8.52146 22C10.8651 22 13.163 21.3685 15.1601 20.1755C17.2724 18.9097 17.6833 16.0814 16.0057 14.3035C15.0553 13.2933 13.899 12.4869 12.6103 11.9358C11.3217 11.3846 9.92914 11.1008 8.52146 11.1024Z" fill="#B050F2"/>
</svg>
