<svg width="22" height="24" viewBox="0 0 22 24" fill="none" xmlns="http://www.w3.org/2000/svg">
<path fill-rule="evenodd" clip-rule="evenodd" d="M8.95134 0.796867C9.44402 0.649072 9.96442 0.618498 10.471 0.707586C10.9776 0.796674 11.4564 1.00296 11.8691 1.30997C12.2818 1.61698 12.617 2.01622 12.8479 2.47581C13.0789 2.93541 13.1992 3.44264 13.1993 3.957V20.0426C13.1992 20.5569 13.0789 21.0642 12.8479 21.5238C12.617 21.9834 12.2818 22.3826 11.8691 22.6896C11.4564 22.9966 10.9776 23.2029 10.471 23.292C9.96442 23.3811 9.44402 23.3505 8.95134 23.2027L2.35168 21.2228C1.67202 21.0189 1.0762 20.6014 0.652576 20.0321C0.228957 19.4629 0.000116362 18.7723 0 18.0627V5.9369C0.000116362 5.22733 0.228957 4.53669 0.652576 3.96744C1.0762 3.39819 1.67202 2.98065 2.35168 2.77676L8.95134 0.796867ZM14.2993 3.20024C14.2993 2.90852 14.4152 2.62875 14.6214 2.42247C14.8277 2.21619 15.1075 2.1003 15.3992 2.1003H18.699C19.5742 2.1003 20.4135 2.44796 21.0324 3.0668C21.6512 3.68564 21.9989 4.52496 21.9989 5.40013V6.50007C21.9989 6.7918 21.883 7.07157 21.6767 7.27785C21.4704 7.48413 21.1906 7.60002 20.8989 7.60002C20.6072 7.60002 20.3274 7.48413 20.1211 7.27785C19.9149 7.07157 19.799 6.7918 19.799 6.50007V5.40013C19.799 5.10841 19.6831 4.82863 19.4768 4.62235C19.2705 4.41607 18.9908 4.30019 18.699 4.30019H15.3992C15.1075 4.30019 14.8277 4.1843 14.6214 3.97802C14.4152 3.77174 14.2993 3.49197 14.2993 3.20024ZM20.8989 16.3996C21.1906 16.3996 21.4704 16.5154 21.6767 16.7217C21.883 16.928 21.9989 17.2078 21.9989 17.4995V18.5995C21.9989 19.4746 21.6512 20.3139 21.0324 20.9328C20.4135 21.5516 19.5742 21.8993 18.699 21.8993H15.3992C15.1075 21.8993 14.8277 21.7834 14.6214 21.5771C14.4152 21.3708 14.2993 21.0911 14.2993 20.7993C14.2993 20.5076 14.4152 20.2278 14.6214 20.0216C14.8277 19.8153 15.1075 19.6994 15.3992 19.6994H18.699C18.9908 19.6994 19.2705 19.5835 19.4768 19.3772C19.6831 19.1709 19.799 18.8912 19.799 18.5995V17.4995C19.799 17.2078 19.9149 16.928 20.1211 16.7217C20.3274 16.5154 20.6072 16.3996 20.8989 16.3996ZM7.6996 10.8998C7.40788 10.8998 7.12811 11.0157 6.92183 11.222C6.71555 11.4283 6.59966 11.7081 6.59966 11.9998C6.59966 12.2915 6.71555 12.5713 6.92183 12.7776C7.12811 12.9838 7.40788 13.0997 7.6996 13.0997H7.7007C7.99243 13.0997 8.2722 12.9838 8.47848 12.7776C8.68476 12.5713 8.80065 12.2915 8.80065 11.9998C8.80065 11.7081 8.68476 11.4283 8.47848 11.222C8.2722 11.0157 7.99243 10.8998 7.7007 10.8998H7.6996ZM17.9214 9.02224C18.1276 8.81604 18.4074 8.7002 18.699 8.7002C18.9907 8.7002 19.2704 8.81604 19.4767 9.02224L21.6766 11.2221L21.6788 11.2243C21.7806 11.3262 21.8614 11.4471 21.9165 11.5801C21.9716 11.7132 22 11.8558 22 11.9998C22 12.1438 21.9716 12.2864 21.9165 12.4195C21.8614 12.5525 21.7806 12.6734 21.6788 12.7753L21.6766 12.7774L19.4767 14.9773C19.2692 15.1777 18.9914 15.2886 18.703 15.2861C18.4146 15.2836 18.1387 15.1679 17.9348 14.9639C17.7308 14.76 17.6152 14.4841 17.6127 14.1957C17.6101 13.9073 17.721 13.6295 17.9214 13.422L18.2437 13.0997H15.3992C15.1075 13.0997 14.8277 12.9838 14.6214 12.7776C14.4152 12.5713 14.2993 12.2915 14.2993 11.9998C14.2993 11.7081 14.4152 11.4283 14.6214 11.222C14.8277 11.0157 15.1075 10.8998 15.3992 10.8998H18.2437L17.9214 10.5776C17.7152 10.3713 17.5993 10.0916 17.5993 9.7999C17.5993 9.50824 17.7152 9.22851 17.9214 9.02224ZM21.6744 11.2199C21.4685 11.0147 21.1896 10.8995 20.8989 10.8998L21.6744 11.2199Z" fill="#B050F2"/>
</svg>
