<svg width="28" height="28" viewBox="0 0 28 28" fill="none" xmlns="http://www.w3.org/2000/svg">
<path d="M12.336 16.16C12.2827 15.9147 12.256 15.6747 12.256 15.44C12.256 15.0453 12.3307 14.6987 12.48 14.4C12.6293 14.0907 12.816 13.8133 13.04 13.568C13.264 13.312 13.4827 13.0667 13.696 12.832C13.92 12.5867 14.1067 12.336 14.256 12.08C14.4053 11.8133 14.48 11.52 14.48 11.2C14.48 10.784 14.32 10.464 14 10.24C13.6907 10.0053 13.264 9.888 12.72 9.888C12.4853 9.888 12.2507 9.90933 12.016 9.952C11.792 9.984 11.5787 10.032 11.376 10.096L11.248 8.512C11.5253 8.40533 11.8293 8.32533 12.16 8.272C12.5013 8.208 12.864 8.176 13.248 8.176C14.2293 8.176 15.0187 8.42133 15.616 8.912C16.2133 9.392 16.512 10.032 16.512 10.832C16.512 11.3333 16.4267 11.7707 16.256 12.144C16.096 12.5067 15.8933 12.832 15.648 13.12C15.4133 13.408 15.1733 13.6853 14.928 13.952C14.6827 14.2187 14.4747 14.5013 14.304 14.8C14.144 15.0987 14.064 15.4347 14.064 15.808C14.064 15.8613 14.064 15.92 14.064 15.984C14.0747 16.0373 14.08 16.096 14.08 16.16H12.336ZM13.216 20.176C12.8427 20.176 12.528 20.0533 12.272 19.808C12.016 19.552 11.888 19.2373 11.888 18.864C11.888 18.48 12.016 18.1653 12.272 17.92C12.528 17.664 12.8427 17.536 13.216 17.536C13.5787 17.536 13.888 17.664 14.144 17.92C14.4 18.1653 14.528 18.48 14.528 18.864C14.528 19.2373 14.4 19.552 14.144 19.808C13.888 20.0533 13.5787 20.176 13.216 20.176Z" fill="#B050F2"/>
<circle cx="14" cy="14" r="13" stroke="#B050F2" stroke-width="2"/>
</svg>
