<svg width="17" height="22" viewBox="0 0 17 22" fill="none" xmlns="http://www.w3.org/2000/svg">
<path d="M14.875 8.25H14.1667V5.5C14.1667 2.46666 11.6253 0 8.5 0C5.37474 0 2.83333 2.46666 2.83333 5.5V8.25H2.125C0.953904 8.25 0 9.17482 0 10.3125V19.9375C0 21.0752 0.953904 22 2.125 22H14.875C16.0461 22 17 21.0752 17 19.9375V10.3125C17 9.17482 16.0461 8.25 14.875 8.25ZM4.72228 5.5C4.72228 3.47776 6.41653 1.83339 8.5 1.83339C10.5835 1.83339 12.2777 3.4778 12.2777 5.5V8.25H4.72228V5.5Z" fill="#B050F2"/>
</svg>
