<svg width="22" height="23" viewBox="0 0 22 23" fill="none" xmlns="http://www.w3.org/2000/svg">
<path d="M10.3555 6.98828V8.39607C9.60687 8.66303 9.06641 9.37176 9.06641 10.2109C9.06641 11.2772 9.93377 12.1445 11 12.1445C11.3556 12.1445 11.6445 12.4335 11.6445 12.7891C11.6445 13.1447 11.3556 13.4336 11 13.4336C10.6444 13.4336 10.3555 13.1447 10.3555 12.7891H9.06641C9.06641 13.6282 9.60687 14.337 10.3555 14.6039V16.0117H11.6445V14.6039C12.3931 14.337 12.9336 13.6282 12.9336 12.7891C12.9336 11.7228 12.0662 10.8555 11 10.8555C10.6444 10.8555 10.3555 10.5665 10.3555 10.2109C10.3555 9.85533 10.6444 9.56641 11 9.56641C11.3556 9.56641 11.6445 9.85533 11.6445 10.2109H12.9336C12.9336 9.37176 12.3931 8.66303 11.6445 8.39607V6.98828H10.3555ZM11.6445 0.5V5.76436C14.3228 6.0657 16.4378 8.18071 16.7398 10.8555H22C21.677 5.32118 17.1797 0.82291 11.6445 0.5ZM6.48798 15.1006C5.69418 14.108 5.19922 12.8669 5.19922 11.5C5.19922 8.52197 7.46303 6.08976 10.3555 5.76436V0.5C4.60591 0.835414 0 5.66626 0 11.5C0 14.2936 1.09716 16.8349 2.81828 18.7703L6.48798 15.1006Z" fill="#B050F2"/>
<path d="M21.9988 12.1445H16.7356C16.4102 15.037 13.978 17.3008 11 17.3008C9.63313 17.3008 8.39197 16.8058 7.39944 16.012L3.72974 19.6817C5.66509 21.4028 8.20639 22.5 11 22.5C16.8337 22.5 21.6634 17.8941 21.9988 12.1445Z" fill="#B050F2"/>
</svg>
