<svg width="32" height="21" viewBox="0 0 32 21" fill="none" xmlns="http://www.w3.org/2000/svg">
<path d="M29.8942 0H2.06452C0.908387 0 0 0.908387 0 2.06452V18.5806C0 19.7368 0.908387 20.6452 2.06452 20.6452H29.9355C31.0916 20.6452 32 19.7368 32 18.5806V2.06452C31.9585 0.908387 31.0501 0 29.894 0H29.8942ZM29.8942 18.5806H2.06452V2.06452H29.9355V18.5806H29.8942Z" fill="white"/>
<path d="M18.5811 7.30817H26.3024C26.8804 7.30817 27.3346 6.85396 27.3346 6.27591C27.3346 5.69786 26.8804 5.24365 26.3024 5.24365H18.5811C18.003 5.24365 17.5488 5.69786 17.5488 6.27591C17.5488 6.85396 18.003 7.30817 18.5811 7.30817Z" fill="white"/>
<path d="M18.5811 11.355H24.1139C24.692 11.355 25.1462 10.9008 25.1462 10.3228C25.1462 9.74474 24.692 9.29053 24.1139 9.29053H18.5811C18.003 9.29053 17.5488 9.74474 17.5488 10.3228C17.5488 10.9008 18.003 11.355 18.5811 11.355Z" fill="white"/>
<path d="M5.2853 15.4425C5.2853 16.0205 5.73951 16.4747 6.31756 16.4747C6.89561 16.4747 7.34982 16.0205 7.34982 15.4425C7.34982 13.7083 8.75362 12.3045 10.4878 12.3045C12.222 12.3045 13.6258 13.7083 13.6258 15.4425C13.6258 16.0205 14.08 16.4747 14.6581 16.4747C15.2361 16.4747 15.6903 16.0205 15.6903 15.4425C15.6903 13.4606 14.5754 11.7676 12.9239 10.9004C13.7496 10.1985 14.2864 9.16619 14.2864 8.01014C14.2864 5.9044 12.5935 4.21143 10.4877 4.21143C8.382 4.21143 6.68903 5.9044 6.68903 8.01014C6.68903 9.16627 7.22589 10.1985 8.05161 10.9004C6.39985 11.7676 5.28516 13.5017 5.28516 15.4425H5.2853ZM10.4466 6.27602C11.3962 6.27602 12.1808 7.06061 12.1808 8.01021C12.1808 8.95981 11.3962 9.7444 10.4466 9.7444C9.49699 9.7444 8.7124 8.95981 8.7124 8.01021C8.7124 7.06061 9.4967 6.27602 10.4466 6.27602Z" fill="white"/>
</svg>
