<svg width="21" height="35" viewBox="0 0 21 35" fill="none" xmlns="http://www.w3.org/2000/svg">
<path d="M15.8362 0H5.16375C3.79443 0.00102796 2.48183 0.535824 1.51349 1.48698C0.545411 2.4381 0.0010714 3.72791 0 5.07331V29.9267C0.00104629 31.272 0.545377 32.5619 1.51349 33.513C2.48183 34.4641 3.79437 34.9989 5.16375 35H15.8362C17.2056 34.999 18.5182 34.4642 19.4865 33.513C20.4546 32.5619 20.9989 31.2721 21 29.9267V5.07331C20.999 3.72797 20.4546 2.4381 19.4865 1.48698C18.5182 0.535857 17.2056 0.00105264 15.8362 0ZM19.125 29.9271C19.1229 30.7834 18.7758 31.6042 18.1595 32.2097C17.5433 32.8151 16.7078 33.1562 15.8362 33.1582H5.16375C4.29217 33.1562 3.45674 32.8151 2.84049 32.2097C2.22422 31.6042 1.8771 30.7833 1.87502 29.9271V5.0737C1.87711 4.21738 2.22422 3.39659 2.84049 2.79113C3.45675 2.18566 4.29223 1.84461 5.16375 1.84257H5.43369C5.1682 2.35424 5.19331 2.96462 5.49961 3.45363C5.80591 3.94269 6.34923 4.23949 6.93355 4.23719H14.0584C14.6427 4.2395 15.1863 3.94267 15.4926 3.45363C15.7989 2.96458 15.8237 2.35422 15.5582 1.84257H15.8282C16.7013 1.84257 17.5383 2.18283 18.1565 2.78856C18.7743 3.39429 19.1225 4.21613 19.1245 5.0737L19.125 29.9271Z" fill="white"/>
</svg>
