<svg width="31" height="29" viewBox="0 0 31 29" fill="none" xmlns="http://www.w3.org/2000/svg">
<path d="M28.136 4.28099L13.4979 17.6417L8.18137 11.8416C7.66362 11.2891 6.80054 11.2547 6.21339 11.738C5.66096 12.2558 5.62652 13.1189 6.10984 13.706L12.3587 20.5417C12.6349 20.8524 13.0147 20.9906 13.3944 20.9906C13.7398 20.9906 14.0504 20.8871 14.3266 20.6453L30.0004 6.31789C30.5529 5.80013 30.5873 4.93706 30.104 4.34991C29.5862 3.79747 28.7232 3.76303 28.1363 4.28079L28.136 4.28099Z" fill="white"/>
<path d="M14.4999 29C22.5094 29 28.9999 22.5095 28.9999 14.5C28.9999 13.8096 28.9655 13.1536 28.8619 12.4976C28.7584 11.7381 28.0679 11.2203 27.3084 11.3239C26.5489 11.4274 26.0311 12.1178 26.1347 12.8774C26.2038 13.4298 26.2382 13.9823 26.2382 14.5C26.2382 20.9559 20.9561 26.2381 14.5001 26.2381C8.04416 26.2381 2.76202 20.9559 2.76202 14.5C2.76202 8.04403 8.04416 2.76189 14.5001 2.76189C17.2621 2.76189 19.9549 3.72856 22.0608 5.52386C22.6477 6.00718 23.5108 5.93807 23.9941 5.35119C24.4774 4.76432 24.4083 3.90119 23.8214 3.41792C21.2324 1.20815 17.918 0 14.5 0C6.49048 0 0 6.49048 0 14.5C0 22.5095 6.49048 29 14.5 29L14.4999 29Z" fill="white"/>
</svg>
