<svg width="28" height="22" viewBox="0 0 28 22" fill="none" xmlns="http://www.w3.org/2000/svg">
<path d="M28 7.26476C28.0007 7.3876 27.9772 7.50936 27.9307 7.62308C27.8843 7.73679 27.8158 7.84022 27.7293 7.92743L22.1293 13.5274C22.0421 13.6139 21.9387 13.6824 21.825 13.7288C21.7113 13.7753 21.5895 13.7988 21.4667 13.7981C21.3453 13.7996 21.2248 13.7774 21.112 13.7328C20.9401 13.6621 20.7932 13.5418 20.6901 13.3872C20.587 13.2325 20.5324 13.0506 20.5333 12.8648V10.0648H12.1333C11.8858 10.0648 11.6484 9.96643 11.4734 9.79139C11.2983 9.61636 11.2 9.37896 11.2 9.13143V5.3981C11.2 5.15057 11.2983 4.91317 11.4734 4.73813C11.6484 4.5631 11.8858 4.46477 12.1333 4.46477H20.5333V1.66477C20.5341 1.48018 20.5896 1.29997 20.6928 1.14692C20.796 0.993868 20.9422 0.874852 21.1131 0.804922C21.2839 0.734991 21.4716 0.717287 21.6525 0.754046C21.8334 0.790806 21.9993 0.880378 22.1293 1.01144L27.7293 6.61143C27.9017 6.78527 27.999 7.01991 28 7.26476ZM15.8667 11.9314H7.46667V9.13143C7.46575 8.94717 7.41031 8.7673 7.30733 8.61449C7.20436 8.46169 7.05845 8.34278 6.88801 8.27276C6.71804 8.20129 6.53071 8.18176 6.34965 8.21664C6.16859 8.25153 6.00192 8.33926 5.87068 8.46876L0.270682 14.0688C0.184179 14.156 0.115743 14.2594 0.0692957 14.3731C0.0228488 14.4868 -0.000694566 14.6086 1.56e-05 14.7314C-0.000694566 14.8543 0.0228488 14.976 0.0692957 15.0897C0.115743 15.2035 0.184179 15.3069 0.270682 15.3941L5.87068 20.9941C5.95789 21.0806 6.06131 21.149 6.17503 21.1955C6.28874 21.2419 6.41051 21.2655 6.53334 21.2647C6.65577 21.2679 6.77724 21.2423 6.88801 21.1901C7.05845 21.1201 7.20436 21.0012 7.30733 20.8484C7.41031 20.6955 7.46575 20.5157 7.46667 20.3314V17.5314H15.8667C16.1142 17.5314 16.3516 17.4331 16.5266 17.2581C16.7017 17.083 16.8 16.8456 16.8 16.5981V12.8648C16.8 12.6172 16.7017 12.3798 16.5266 12.2048C16.3516 12.0298 16.1142 11.9314 15.8667 11.9314Z" fill="#B050F2"/>
</svg>
