<svg width="23" height="20" viewBox="0 0 23 20" fill="none" xmlns="http://www.w3.org/2000/svg">
<path d="M13.8795 3.64439C14.943 4.31117 15.6887 5.4395 15.8244 6.74923C16.2704 6.95901 16.757 7.06799 17.2499 7.06842C19.113 7.06842 20.6231 5.55833 20.6231 3.69548C20.6231 1.83235 19.113 0.322266 17.2499 0.322266C15.4045 0.32284 13.9076 1.80594 13.8795 3.64439ZM11.6696 10.551C13.5328 10.551 15.0429 9.04062 15.0429 7.17778C15.0429 5.31493 13.5325 3.80484 11.6696 3.80484C9.80679 3.80484 8.29585 5.31522 8.29585 7.17806C8.29585 9.04091 9.80679 10.551 11.6696 10.551ZM13.1005 10.7809H10.2382C7.85668 10.7809 5.91921 12.7187 5.91921 15.1002V18.6006L5.9281 18.6554L6.16921 18.7309C8.44195 19.441 10.4164 19.6778 12.0416 19.6778C15.2159 19.6778 17.0558 18.7728 17.1692 18.7151L17.3945 18.6011H17.4186V15.1002C17.4195 12.7187 15.482 10.7809 13.1005 10.7809ZM18.6813 7.29862H15.8411C15.8122 8.3953 15.3511 9.43612 14.5581 10.1942C16.6749 10.8237 18.2238 12.7867 18.2238 15.1054V16.184C21.0281 16.0813 22.6441 15.2865 22.7506 15.2331L22.9759 15.1188H23V11.6173C23 9.23609 21.0625 7.29862 18.6813 7.29862ZM5.75072 7.06899C6.41061 7.06899 7.02457 6.87639 7.54468 6.54831C7.70787 5.49274 8.26946 4.53987 9.11389 3.88579C9.11734 3.82264 9.12336 3.76007 9.12336 3.69635C9.12336 1.83321 7.61299 0.323127 5.75072 0.323127C3.8873 0.323127 2.3775 1.83321 2.3775 3.69635C2.3775 5.55862 3.8873 7.06899 5.75072 7.06899ZM8.78007 10.1942C7.99148 9.43974 7.53098 8.40557 7.49789 7.31469C7.39255 7.30694 7.28836 7.29862 7.18101 7.29862H4.31899C1.93748 7.29862 0 9.23609 0 11.6173V15.1183L0.00889804 15.1722L0.250006 15.2483C2.07324 15.8175 3.70044 16.0798 5.11379 16.1625V15.1054C5.11436 12.7867 6.66262 10.8243 8.78007 10.1942Z" fill="#B050F2"/>
</svg>
