<svg width="24" height="24" viewBox="0 0 24 24" fill="none" xmlns="http://www.w3.org/2000/svg">
<path fill-rule="evenodd" clip-rule="evenodd" d="M18.6664 0.333984H4.6666C3.42894 0.333984 2.24197 0.825643 1.36682 1.7008C0.491658 2.57596 0 3.76293 0 5.00059V19.0004C0 20.2381 0.491658 21.425 1.36682 22.3002C2.24197 23.1753 3.42894 23.667 4.6666 23.667H18.6664C19.9041 23.667 21.091 23.1753 21.9662 22.3002C22.8413 21.425 23.333 20.2381 23.333 19.0004V5.00059C23.333 3.76293 22.8413 2.57596 21.9662 1.7008C21.091 0.825643 19.9041 0.333984 18.6664 0.333984ZM17.0238 9.0372C17.1585 8.85346 17.2162 8.62442 17.1847 8.39876C17.1532 8.17311 17.0349 7.96865 16.855 7.82885C16.6751 7.68905 16.4478 7.62494 16.2213 7.65016C15.9949 7.67538 15.7872 7.78793 15.6424 7.96388L10.9677 13.9733C10.9431 14.005 10.9123 14.0314 10.8771 14.0507C10.8419 14.07 10.8031 14.0818 10.7632 14.0854C10.7232 14.089 10.6829 14.0844 10.6448 14.0717C10.6067 14.059 10.5717 14.0386 10.5419 14.0118L7.58556 11.3507C7.50015 11.2738 7.40042 11.2144 7.29208 11.1761C7.18374 11.1377 7.0689 11.121 6.95412 11.127C6.83934 11.1331 6.72687 11.1616 6.62313 11.2111C6.51938 11.2606 6.4264 11.33 6.34949 11.4154C6.27259 11.5008 6.21325 11.6006 6.17488 11.7089C6.13651 11.8172 6.11986 11.9321 6.12587 12.0469C6.13188 12.1616 6.16045 12.2741 6.20992 12.3778C6.2594 12.4816 6.32883 12.5746 6.41424 12.6515L9.3717 15.3114C9.58013 15.4991 9.82497 15.6417 10.091 15.7306C10.357 15.8194 10.6384 15.8525 10.9177 15.8277C11.1971 15.803 11.4683 15.721 11.7146 15.5868C11.9608 15.4526 12.1768 15.2691 12.349 15.0478L17.0238 9.0372Z" fill="#B050F2"/>
</svg>
