<svg width="25" height="23" viewBox="0 0 25 23" fill="none" xmlns="http://www.w3.org/2000/svg">
<path opacity="0.6" fill-rule="evenodd" clip-rule="evenodd" d="M20.0184 4.14539C20.2596 4.36819 20.26 4.72979 20.0194 4.95302L5.54161 18.3845C5.30097 18.6079 4.91046 18.6081 4.66936 18.3854C4.42825 18.1626 4.42788 17.8009 4.6685 17.5777L19.1462 4.14618C19.3869 3.92294 19.7773 3.92258 20.0184 4.14539Z" fill="white"/>
<path opacity="0.6" fill-rule="evenodd" clip-rule="evenodd" d="M20.033 18.3712C19.7924 18.5946 19.4018 18.5948 19.1607 18.3721L4.65471 4.96676C4.4136 4.74396 4.41323 4.38236 4.65385 4.15912C4.89449 3.93587 5.28501 3.93552 5.52612 4.15833L20.0321 17.5636C20.2732 17.7865 20.2736 18.148 20.033 18.3712Z" fill="white"/>
<path opacity="0.6" fill-rule="evenodd" clip-rule="evenodd" d="M20.4263 11.2559C20.4263 11.5713 20.1502 11.827 19.8095 11.827L4.93514 11.827C4.5945 11.827 4.31836 11.5713 4.31836 11.2559C4.31836 10.9405 4.5945 10.6848 4.93514 10.6848L19.8095 10.6848C20.1502 10.6848 20.4263 10.9405 20.4263 11.2559Z" fill="white"/>
<path opacity="0.6" fill-rule="evenodd" clip-rule="evenodd" d="M12.3717 18.7133C12.031 18.7133 11.7549 18.4576 11.7549 18.1422L11.7549 4.36968C11.7549 4.05428 12.031 3.79858 12.3717 3.79858C12.7123 3.79858 12.9884 4.05428 12.9884 4.36968L12.9885 18.1422C12.9885 18.4576 12.7123 18.7133 12.3717 18.7133Z" fill="white"/>
<path d="M19.4293 20.6055C21.0643 20.6055 22.3898 19.3782 22.3898 17.8643C22.3898 16.3503 21.0643 15.123 19.4293 15.123C17.7942 15.123 16.4688 16.3503 16.4688 17.8643C16.4688 19.3782 17.7942 20.6055 19.4293 20.6055Z" fill="white"/>
<path d="M12.274 20.6055C13.9091 20.6055 15.2345 19.3782 15.2345 17.8643C15.2345 16.3503 13.9091 15.123 12.274 15.123C10.6389 15.123 9.31348 16.3503 9.31348 17.8643C9.31348 19.3782 10.6389 20.6055 12.274 20.6055Z" fill="white"/>
<path d="M5.11971 20.6055C6.75476 20.6055 8.08024 19.3782 8.08024 17.8643C8.08024 16.3503 6.75476 15.123 5.11971 15.123C3.48465 15.123 2.15918 16.3503 2.15918 17.8643C2.15918 19.3782 3.48465 20.6055 5.11971 20.6055Z" fill="white"/>
<path d="M19.4293 7.35622C21.0643 7.35622 22.3898 6.12894 22.3898 4.615C22.3898 3.10107 21.0643 1.87378 19.4293 1.87378C17.7942 1.87378 16.4688 3.10107 16.4688 4.615C16.4688 6.12894 17.7942 7.35622 19.4293 7.35622Z" fill="white"/>
<path d="M12.274 7.35622C13.9091 7.35622 15.2345 6.12894 15.2345 4.615C15.2345 3.10107 13.9091 1.87378 12.274 1.87378C10.6389 1.87378 9.31348 3.10107 9.31348 4.615C9.31348 6.12894 10.6389 7.35622 12.274 7.35622Z" fill="white"/>
<path d="M19.4293 13.981C21.0643 13.981 22.3898 12.7537 22.3898 11.2398C22.3898 9.72582 21.0643 8.49854 19.4293 8.49854C17.7942 8.49854 16.4688 9.72582 16.4688 11.2398C16.4688 12.7537 17.7942 13.981 19.4293 13.981Z" fill="white"/>
<path d="M12.398 13.8667C14.0331 13.8667 15.3586 12.6394 15.3586 11.1255C15.3586 9.61156 14.0331 8.38428 12.398 8.38428C10.763 8.38428 9.4375 9.61156 9.4375 11.1255C9.4375 12.6394 10.763 13.8667 12.398 13.8667Z" fill="white"/>
<path d="M5.11971 7.35622C6.75476 7.35622 8.08024 6.12894 8.08024 4.615C8.08024 3.10107 6.75476 1.87378 5.11971 1.87378C3.48465 1.87378 2.15918 3.10107 2.15918 4.615C2.15918 6.12894 3.48465 7.35622 5.11971 7.35622Z" fill="white"/>
<path d="M5.11971 13.981C6.75476 13.981 8.08024 12.7537 8.08024 11.2398C8.08024 9.72582 6.75476 8.49854 5.11971 8.49854C3.48465 8.49854 2.15918 9.72582 2.15918 11.2398C2.15918 12.7537 3.48465 13.981 5.11971 13.981Z" fill="white"/>
</svg>
