<svg width="25" height="24" viewBox="0 0 25 24" fill="none" xmlns="http://www.w3.org/2000/svg">
<path fill-rule="evenodd" clip-rule="evenodd" d="M12.2743 21.448C18.0651 21.448 22.7594 17.1014 22.7594 11.7395C22.7594 6.37766 18.0651 2.03101 12.2743 2.03101C6.48344 2.03101 1.78906 6.37766 1.78906 11.7395C1.78906 17.1014 6.48344 21.448 12.2743 21.448ZM12.2743 19.3921C16.8388 19.3921 20.5391 15.9659 20.5391 11.7395C20.5391 7.5131 16.8388 4.08693 12.2743 4.08693C7.70973 4.08693 4.00945 7.5131 4.00945 11.7395C4.00945 15.9659 7.70973 19.3921 12.2743 19.3921Z" fill="white"/>
<path fill-rule="evenodd" clip-rule="evenodd" d="M19.3053 11.7536C19.3053 11.7489 19.3053 11.7441 19.3053 11.7393C19.3053 9.34531 17.9098 7.25307 15.8308 6.12207L12.3193 11.7536L19.3053 11.7536Z" fill="white"/>
<path opacity="0.8" fill-rule="evenodd" clip-rule="evenodd" d="M8.78613 6.08583L12.3202 11.7536L15.8326 6.12298C14.7888 5.55497 13.5729 5.22925 12.2747 5.22925C11.0052 5.22925 9.8142 5.5408 8.78613 6.08583Z" fill="white"/>
<path opacity="0.6" fill-rule="evenodd" clip-rule="evenodd" d="M5.24318 11.7539C5.24318 11.7491 5.24316 11.7444 5.24316 11.7396C5.24316 9.31752 6.67161 7.20437 8.79101 6.08301L12.3195 11.7539H5.24318Z" fill="white"/>
<path fill-rule="evenodd" clip-rule="evenodd" d="M8.79878 17.4002C6.67887 16.2819 5.24825 14.1721 5.24316 11.7524L12.3203 11.7525L8.79878 17.4002Z" fill="white"/>
<path opacity="0.8" fill-rule="evenodd" clip-rule="evenodd" d="M8.79883 17.4003L12.3216 11.7529L15.8198 17.3632C14.779 17.9269 13.5676 18.25 12.2747 18.25C11.0104 18.25 9.82401 17.9411 8.79883 17.4003Z" fill="white"/>
<path opacity="0.6" fill-rule="evenodd" clip-rule="evenodd" d="M19.3053 11.7524C19.3003 14.1475 17.8985 16.239 15.8141 17.3658L12.3213 11.7524H19.3053Z" fill="white"/>
</svg>
