<svg width="24" height="23" viewBox="0 0 24 23" fill="none" xmlns="http://www.w3.org/2000/svg">
<mask id="mask0_266_336" style="mask-type:luminance" maskUnits="userSpaceOnUse" x="0" y="0" width="24" height="23">
<path d="M23.9932 0.388916H0.555664V22.0903H23.9932V0.388916Z" fill="white"/>
</mask>
<g mask="url(#mask0_266_336)">
<g opacity="0.8">
<path fill-rule="evenodd" clip-rule="evenodd" d="M19.2795 11.8662L4.72363 5.24161L5.26779 4.21655L19.8237 10.8412L19.2795 11.8662Z" fill="white"/>
<path fill-rule="evenodd" clip-rule="evenodd" d="M5.26777 18.9478L19.8236 12.3232L19.2796 11.2981L4.72363 17.9228L5.26777 18.9478Z" fill="white"/>
<path fill-rule="evenodd" clip-rule="evenodd" d="M5.26777 11.2981L19.8236 17.9227L19.2796 18.9477L4.72363 12.3231L5.26777 11.2981Z" fill="white"/>
<path fill-rule="evenodd" clip-rule="evenodd" d="M19.2795 4.21655L4.72363 10.8412L5.26779 11.8662L19.8237 5.24161L19.2795 4.21655Z" fill="white"/>
</g>
<path d="M19.5523 20.7197C21.1874 20.7197 22.5129 19.4925 22.5129 17.9785C22.5129 16.4646 21.1874 15.2373 19.5523 15.2373C17.9173 15.2373 16.5918 16.4646 16.5918 17.9785C16.5918 19.4925 17.9173 20.7197 19.5523 20.7197Z" fill="white"/>
<path d="M19.5523 14.095C21.1874 14.095 22.5129 12.8677 22.5129 11.3538C22.5129 9.83984 21.1874 8.61255 19.5523 8.61255C17.9173 8.61255 16.5918 9.83984 16.5918 11.3538C16.5918 12.8677 17.9173 14.095 19.5523 14.095Z" fill="white"/>
<path d="M19.5523 7.47048C21.1874 7.47048 22.5129 6.24319 22.5129 4.72926C22.5129 3.21532 21.1874 1.98804 19.5523 1.98804C17.9173 1.98804 16.5918 3.21532 16.5918 4.72926C16.5918 6.24319 17.9173 7.47048 19.5523 7.47048Z" fill="white"/>
<path d="M4.99666 20.7197C6.63171 20.7197 7.95719 19.4925 7.95719 17.9785C7.95719 16.4646 6.63171 15.2373 4.99666 15.2373C3.36161 15.2373 2.03613 16.4646 2.03613 17.9785C2.03613 19.4925 3.36161 20.7197 4.99666 20.7197Z" fill="white"/>
<path d="M4.99666 14.095C6.63171 14.095 7.95719 12.8677 7.95719 11.3538C7.95719 9.83984 6.63171 8.61255 4.99666 8.61255C3.36161 8.61255 2.03613 9.83984 2.03613 11.3538C2.03613 12.8677 3.36161 14.095 4.99666 14.095Z" fill="white"/>
<path d="M4.99666 7.47048C6.63171 7.47048 7.95719 6.24319 7.95719 4.72926C7.95719 3.21532 6.63171 1.98804 4.99666 1.98804C3.36161 1.98804 2.03613 3.21532 2.03613 4.72926C2.03613 6.24319 3.36161 7.47048 4.99666 7.47048Z" fill="white"/>
</g>
</svg>
