<svg width="78" height="64" viewBox="0 0 78 64" fill="none" xmlns="http://www.w3.org/2000/svg">
<path d="M70.9998 9.60012H55V6.40003C55 2.87039 52.1297 0 48.5999 0H29.4C25.8704 0 23 2.87024 23 6.40003V9.59997H7.00013C3.47034 9.60012 0.600098 12.4704 0.600098 16V25.6C0.600098 29.1298 3.47034 32 7.00013 32H32.6001V30.4C32.6 30.1898 32.6413 29.9817 32.7216 29.7875C32.802 29.5933 32.9198 29.4168 33.0684 29.2682C33.217 29.1196 33.3935 29.0018 33.5877 28.9214C33.7819 28.8411 33.99 28.7998 34.2001 28.7999H43.8001C44.0103 28.7998 44.2184 28.8411 44.4126 28.9214C44.6068 29.0018 44.7832 29.1196 44.9318 29.2682C45.0804 29.4168 45.1983 29.5933 45.2786 29.7875C45.359 29.9817 45.4003 30.1898 45.4002 30.4V32H71.0001C74.5296 32 77.3999 29.1298 77.3999 25.6V16C77.3999 12.4704 74.5296 9.60012 70.9998 9.60012ZM48.5999 9.60012H29.4V6.40003H48.5999V9.60012ZM76.5123 33.7265C76.2456 33.5942 75.9472 33.539 75.6508 33.5668C75.3543 33.5947 75.0715 33.7046 74.8341 33.8843C73.6967 34.7453 72.3716 35.1999 70.9997 35.1999H45.4V39.9999C45.4001 40.2101 45.3589 40.4182 45.2785 40.6124C45.1981 40.8066 45.0803 40.983 44.9317 41.1316C44.7831 41.2802 44.6066 41.3981 44.4124 41.4785C44.2182 41.5588 44.0101 41.6001 43.8 41.6H34.2C33.9898 41.6001 33.7817 41.5588 33.5875 41.4785C33.3933 41.3981 33.2169 41.2802 33.0683 41.1316C32.9197 40.983 32.8018 40.8066 32.7215 40.6124C32.6411 40.4182 32.5998 40.2101 32.5999 39.9999V35.1999H7.00013C5.62823 35.1999 4.30329 34.7453 3.16569 33.8843C2.92892 33.7032 2.646 33.5924 2.34924 33.5645C2.05249 33.5366 1.75387 33.5927 1.48749 33.7265C1.22089 33.8591 0.996574 34.0635 0.8398 34.3166C0.683026 34.5698 0.600012 34.8617 0.600098 35.1594L0.600098 57.6C0.600098 61.1296 3.47034 64 7.00013 64H71C74.5296 64 77.4 61.1297 77.4 57.6V35.1594C77.4 34.8616 77.317 34.5698 77.1601 34.3166C77.0033 34.0634 76.779 33.8591 76.5123 33.7265Z" fill="url(#paint0_linear_45_3665)"/>
<defs>
<linearGradient id="paint0_linear_45_3665" x1="39" y1="0" x2="39" y2="64" gradientUnits="userSpaceOnUse">
<stop stop-color="#B050F2"/>
<stop offset="1"/>
</linearGradient>
</defs>
</svg>
