<svg width="22" height="26" viewBox="0 0 22 26" fill="none" xmlns="http://www.w3.org/2000/svg">
<path d="M15.6015 0C15.662 0 15.7225 0 15.7864 0C15.9348 1.83357 15.235 3.20362 14.3844 4.19576C13.5498 5.18105 12.407 6.13665 10.5586 5.99166C10.4353 4.18434 11.1363 2.91591 11.9857 1.92605C12.7735 1.00356 14.2177 0.182672 15.6015 0Z" fill="white"/>
<path d="M21.1969 19.0851C21.1969 19.1033 21.1969 19.1193 21.1969 19.1364C20.6774 20.7097 19.9364 22.0581 19.0322 23.3094C18.2067 24.4454 17.1952 25.9741 15.389 25.9741C13.8283 25.9741 12.7916 24.9705 11.1921 24.9431C9.50011 24.9157 8.56962 25.7823 7.02261 26.0004C6.84565 26.0004 6.66869 26.0004 6.49515 26.0004C5.35915 25.836 4.44237 24.9363 3.77447 24.1257C1.80503 21.7304 0.283142 18.6364 0 14.677C0 14.2888 0 13.9017 0 13.5136C0.119879 10.6798 1.49677 8.37589 3.32692 7.25931C4.2928 6.66562 5.6206 6.15985 7.09911 6.3859C7.73275 6.48409 8.3801 6.70102 8.94752 6.91566C9.48527 7.1223 10.1577 7.48879 10.7948 7.46938C11.2264 7.45682 11.6556 7.23191 12.0906 7.07321C13.3648 6.6131 14.6138 6.08564 16.2601 6.33339C18.2387 6.63251 19.643 7.51162 20.5107 8.86797C18.837 9.93318 17.5137 11.5384 17.7398 14.2796C17.9407 16.7697 19.3884 18.2265 21.1969 19.0851Z" fill="white"/>
</svg>
