<svg width="18" height="18" viewBox="0 0 18 18" fill="none" xmlns="http://www.w3.org/2000/svg">
<path d="M16.5 4.5L10.5 7.5H9V5C9 2.24242 11.0182 0 13.5 0C15.9818 0 18 1.74242 18 4.5C18 4.5 17.43 4.5 16.5 4.5ZM16.5 4.5C16.5 2.6616 15.1545 1.66672 13.5 1.66672C11.8455 1.66672 10.5 3.16164 10.5 5V7.5L16.5 4.5Z" fill="#818181"/>
<path d="M1.59375 7.21875H2.125C2.125 7.21875 4.03106 7.21875 6.375 7.21875C8.71894 7.21875 10.625 7.21875 10.625 7.21875H11.1563C12.0346 7.21875 12.75 7.94389 12.75 8.83594V16.3828C12.75 17.2749 12.0346 18 11.1563 18H1.59375C0.715429 18 1.90735e-06 17.2749 1.90735e-06 16.3828V8.83594C1.90735e-06 7.94389 0.715429 7.21875 1.59375 7.21875ZM9.20829 7.21875C9.30443 7.21875 3.54171 7.21875 3.54171 7.21875H9.20829Z" fill="#818181"/>
</svg>
