<svg width="27" height="28" viewBox="0 0 27 28" fill="none" xmlns="http://www.w3.org/2000/svg">
<g clip-path="url(#clip0_54_9080)">
<path d="M13.4998 0.25C8.00006 0.25 3.52588 4.72419 3.52588 10.2239C3.52588 12.0345 4.33787 13.9817 4.3719 14.0639C4.63416 14.6864 5.15163 15.6533 5.52477 16.22L12.3634 26.5817C12.6432 27.0065 13.0574 27.25 13.4998 27.25C13.9422 27.25 14.3564 27.0065 14.6362 26.5823L21.4754 16.22C21.8492 15.6533 22.366 14.6864 22.6283 14.0639C22.6623 13.9823 23.4737 12.0351 23.4737 10.2239C23.4737 4.72419 18.9995 0.25 13.4998 0.25ZM21.5464 13.6086C21.3123 14.1666 20.8306 15.066 20.4956 15.5741L13.6565 25.9364C13.5215 26.1411 13.4787 26.1411 13.3437 25.9364L6.50456 15.5741C6.16956 15.066 5.68787 14.166 5.45378 13.608C5.44381 13.584 4.69928 11.7916 4.69928 10.2239C4.69928 5.37132 8.6472 1.4234 13.4998 1.4234C18.3524 1.4234 22.3003 5.37132 22.3003 10.2239C22.3003 11.7939 21.554 13.591 21.5464 13.6086Z" fill="#505050"/>
<path d="M13.5 4.94434C10.5882 4.94434 8.21973 7.31344 8.21973 10.2246C8.21973 13.1359 10.5882 15.505 13.5 15.505C16.4118 15.505 18.7804 13.1359 18.7804 10.2246C18.7804 7.31344 16.4118 4.94434 13.5 4.94434ZM13.5 14.3316C11.236 14.3316 9.39313 12.4893 9.39313 10.2246C9.39313 7.95998 11.236 6.11774 13.5 6.11774C15.7641 6.11774 17.6069 7.95998 17.6069 10.2246C17.6069 12.4893 15.7641 14.3316 13.5 14.3316Z" fill="#505050"/>
</g>
<defs>
<clipPath id="clip0_54_9080">
<rect width="27" height="27" fill="white" transform="translate(0 0.25)"/>
</clipPath>
</defs>
</svg>
