<svg width="32" height="21" viewBox="0 0 32 21" fill="none" xmlns="http://www.w3.org/2000/svg">
<g clip-path="url(#clip0_114_916)">
<path d="M3.46161 13.8487C3.46161 15.0571 3.72913 15.983 4.08037 16.5438C4.53985 17.2781 5.22396 17.5888 5.92237 17.5888C6.82498 17.5888 7.64795 17.3689 9.23672 15.1963C10.509 13.4573 12.0079 11.0144 13.0167 9.48127L14.7259 6.88703C15.9124 5.08559 17.2847 3.08242 18.8612 1.72478C20.1457 0.615274 21.5344 0 22.9291 0C25.2735 0 27.5055 1.3415 29.2127 3.86109C31.0833 6.61873 31.99 10.0905 31.99 13.6752C31.99 15.8055 31.5652 17.3709 30.8423 18.6095C30.1439 19.8058 28.7839 21 26.4926 21V17.5888C28.4531 17.5888 28.9432 15.8075 28.9432 13.77C28.9432 10.8651 28.257 7.6415 26.7479 5.33775C25.6778 3.70375 24.2892 2.70519 22.7617 2.70519C21.1116 2.70519 19.7822 3.93775 18.2874 6.13257C17.493 7.29856 16.6782 8.72075 15.7633 10.3245L14.7545 12.0896C12.7308 15.638 12.2182 16.447 11.2053 17.7804C9.43277 20.1144 7.91751 21 5.92237 21C3.55759 21 2.06072 19.9873 1.13564 18.4622C0.378013 17.2176 0.00634766 15.5856 0.00634766 13.7277L3.46161 13.8487Z" fill="#0081FB"/>
<path d="M2.73047 4.10115C4.31515 1.68847 6.60028 0 9.22236 0C10.7397 0 12.2488 0.443804 13.8253 1.71671C15.5488 3.10663 17.3868 5.39827 19.6801 9.17262L20.501 10.5262C22.4859 13.7942 23.6152 15.4746 24.2748 16.2674C25.1243 17.2862 25.7206 17.5888 26.4926 17.5888C28.453 17.5888 28.9431 15.8075 28.9431 13.77L31.9899 13.6752C31.9899 15.8055 31.5652 17.3709 30.8423 18.6095C30.1439 19.8058 28.7838 21 26.4926 21C25.0692 21 23.8072 20.6934 22.4124 19.3942C21.3403 18.3957 20.0864 16.6225 19.1226 15.0268L16.2554 10.2902C14.8157 7.91383 13.4945 6.14265 12.7307 5.33977C11.9098 4.47637 10.852 3.43343 9.16723 3.43343C7.80105 3.43343 6.64317 4.37954 5.67316 5.82795L2.73047 4.10115Z" fill="url(#paint0_linear_114_916)"/>
<path d="M9.16729 3.43343C7.80111 3.43343 6.64323 4.37954 5.67323 5.82795C4.30092 7.87349 3.46161 10.9216 3.46161 13.8487C3.46161 15.0571 3.72913 15.983 4.08037 16.5438L1.13564 18.4622C0.378013 17.2176 0.00634766 15.5856 0.00634766 13.7277C0.00634766 10.3467 0.945722 6.82248 2.73053 4.10115C4.31522 1.68847 6.60035 0 9.22243 0L9.16729 3.43343Z" fill="url(#paint1_linear_114_916)"/>
</g>
<defs>
<linearGradient id="paint0_linear_114_916" x1="6.79224" y1="12.8643" x2="28.8131" y2="13.9908" gradientUnits="userSpaceOnUse">
<stop stop-color="#0064E1"/>
<stop offset="0.4" stop-color="#0064E1"/>
<stop offset="0.8" stop-color="#0073EE"/>
<stop offset="1" stop-color="#0082FB"/>
</linearGradient>
<linearGradient id="paint1_linear_114_916" x1="5.01158" y1="15.283" x2="5.01158" y2="7.2562" gradientUnits="userSpaceOnUse">
<stop stop-color="#0082FB"/>
<stop offset="1" stop-color="#0064E0"/>
</linearGradient>
<clipPath id="clip0_114_916">
<rect width="32" height="21" fill="white"/>
</clipPath>
</defs>
</svg>
