<svg width="26" height="25" viewBox="0 0 26 25" fill="none" xmlns="http://www.w3.org/2000/svg">
<path d="M20.3291 1.07075C21.8267 0.688966 23.4326 0.476514 25.1455 0.488721C25.1577 2.20161 24.9453 3.80762 24.5635 5.30518" stroke="white" stroke-miterlimit="10" stroke-linecap="round" stroke-linejoin="round"/>
<path d="M10.6694 19.1079H10.6689L7.78711 19.9189L5.71533 17.8472L6.52637 14.9653V14.9648" stroke="white" stroke-miterlimit="10" stroke-linecap="round" stroke-linejoin="round"/>
<path d="M5.71533 21.9907C5.14307 22.5625 1.12256 24.5117 1.12256 24.5117C1.12256 24.5117 3.07178 20.4912 3.64355 19.9189C4.21582 19.3467 5.14307 19.3467 5.71533 19.9189C6.2876 20.4912 6.2876 21.4185 5.71533 21.9907Z" stroke="white" stroke-miterlimit="10" stroke-linecap="round" stroke-linejoin="round"/>
<path d="M14.0698 11.5645C12.9272 10.4219 12.9272 8.56397 14.0698 7.42139C15.2124 6.27881 17.0703 6.27881 18.2129 7.42139C19.3555 8.56397 19.3555 10.4219 18.2129 11.5645C17.0703 12.707 15.2124 12.707 14.0698 11.5645Z" stroke="white" stroke-miterlimit="10" stroke-linecap="round" stroke-linejoin="round"/>
<path d="M24.5635 5.30518H24.563C23.4912 5.26709 22.4316 4.83882 21.6133 4.02095C20.7954 3.20259 20.3672 2.14302 20.3291 1.07129V1.07075" stroke="white" stroke-miterlimit="10" stroke-linecap="round" stroke-linejoin="round"/>
<path d="M11.7051 13.9292L8.59766 17.0366" stroke="white" stroke-miterlimit="10" stroke-linecap="round" stroke-linejoin="round"/>
<path d="M15.5166 17.9546C16.4829 19.6338 16.248 21.8159 14.8125 23.2515L11.7051 20.144" stroke="white" stroke-miterlimit="10" stroke-linecap="round" stroke-linejoin="round"/>
<path d="M5.49023 13.9292L2.38281 10.8218C3.81836 9.38628 6 9.15137 7.67969 10.1172" stroke="white" stroke-miterlimit="10" stroke-linecap="round" stroke-linejoin="round"/>
<path d="M22.4335 10.2608C22.4341 10.2602 22.4353 10.2586 22.4362 10.2565C22.4369 10.2548 22.437 10.2535 22.437 10.2526C22.437 10.2518 22.4369 10.2504 22.4362 10.2487C22.4353 10.2466 22.4341 10.245 22.4334 10.2443C22.4334 10.2443 22.4334 10.2443 22.4334 10.2443C22.4327 10.2436 22.4311 10.2424 22.429 10.2416C22.4273 10.2409 22.426 10.2407 22.4251 10.2407C22.4243 10.2407 22.423 10.2409 22.4212 10.2416C22.4192 10.2424 22.4176 10.2436 22.4169 10.2443C22.4169 10.2443 22.4169 10.2443 22.4168 10.2443C22.4162 10.245 22.415 10.2466 22.4141 10.2487C22.4134 10.2504 22.4133 10.2518 22.4133 10.2526C22.4133 10.2535 22.4134 10.2548 22.4141 10.2565C22.415 10.2586 22.4162 10.2602 22.4168 10.2608C22.4168 10.2609 22.4168 10.2609 22.4168 10.2609C22.4175 10.2616 22.4191 10.2627 22.4212 10.2636C22.4229 10.2643 22.4243 10.2644 22.4251 10.2644C22.426 10.2644 22.4273 10.2643 22.4291 10.2636C22.4311 10.2627 22.4327 10.2616 22.4334 10.2609C22.4334 10.2609 22.4335 10.2609 22.4335 10.2608Z" fill="white" stroke="white"/>
<path d="M24.5632 5.30508C24.2914 6.37217 23.9339 7.38428 23.5107 8.34082" stroke="white" stroke-miterlimit="10" stroke-linecap="round" stroke-linejoin="round"/>
<path d="M21.3167 12.1507C19.5283 14.6379 17.3834 16.5717 15.502 17.9346C13.9331 19.0718 12.5473 19.8116 11.705 20.144L5.49023 13.9292C5.82368 13.085 6.56348 11.6992 7.69971 10.1314C10.1299 6.77735 14.373 2.58789 20.3291 1.07134" stroke="white" stroke-miterlimit="10" stroke-linecap="round" stroke-linejoin="round"/>
</svg>
