<svg width="22" height="27" viewBox="0 0 22 27" fill="none" xmlns="http://www.w3.org/2000/svg">
<path d="M10.836 13.1761C12.5546 13.1761 14.0425 12.5597 15.2587 11.3436C16.4744 10.1277 17.091 8.63994 17.091 6.92121C17.091 5.20298 16.4746 3.71507 15.2585 2.49873C14.0423 1.28299 12.5544 0.666626 10.836 0.666626C9.11726 0.666626 7.62946 1.28299 6.41357 2.49893C5.19768 3.71487 4.58106 5.20282 4.58106 6.92121C4.58106 8.63994 5.19763 10.1279 6.41362 11.3438C7.62991 12.5596 9.11787 13.1761 10.836 13.1761H10.836ZM7.48982 3.57498C8.42279 2.64196 9.5173 2.18846 10.836 2.18846C12.1546 2.18846 13.2493 2.64196 14.1824 3.57498C15.1154 4.50815 15.5691 5.60281 15.5691 6.92116C15.5691 8.23991 15.1154 9.33442 14.1824 10.2676C13.2493 11.2008 12.1546 11.6543 10.836 11.6543C9.51765 11.6543 8.42324 11.2006 7.48982 10.2676C6.5566 9.33462 6.1029 8.23996 6.1029 6.92121C6.1029 5.60281 6.5566 4.50815 7.48982 3.57498ZM21.7805 20.6357C21.7454 20.1297 21.6745 19.5777 21.5701 18.9948C21.4647 18.4075 21.329 17.8524 21.1665 17.345C20.9985 16.8205 20.7705 16.3026 20.4881 15.8063C20.1954 15.2912 19.8515 14.8426 19.4655 14.4735C19.062 14.0873 18.5678 13.7769 17.9964 13.5504C17.427 13.3252 16.7959 13.211 16.1209 13.211C15.8558 13.211 15.5995 13.3198 15.1043 13.6422C14.7524 13.8714 14.3994 14.0989 14.0453 14.3249C13.7051 14.5417 13.2443 14.7447 12.675 14.9286C12.1197 15.1083 11.5558 15.1995 10.9991 15.1995C10.4428 15.1995 9.87884 15.1083 9.32309 14.9286C8.7545 14.7449 8.29345 14.5419 7.95382 14.3251C7.55971 14.0732 7.20314 13.8434 6.89385 13.6419C6.39911 13.3196 6.14272 13.2108 5.87765 13.2108C5.2024 13.2108 4.57158 13.3251 4.00233 13.5506C3.43132 13.7767 2.93699 14.0871 2.53299 14.4737C2.14705 14.843 1.80311 15.2913 1.51066 15.8063C1.22875 16.3026 1.0005 16.8203 0.832464 17.3452C0.670156 17.8526 0.534477 18.4075 0.429078 18.9948C0.32444 19.5769 0.253735 20.1291 0.218636 20.6363C0.184145 21.1322 0.166748 21.6484 0.166748 22.1698C0.166748 23.5254 0.597675 24.6228 1.44746 25.4322C2.28674 26.231 3.39708 26.6359 4.74768 26.6359H17.2521C18.6023 26.6359 19.7126 26.2309 20.5521 25.4323C21.4021 24.6235 21.833 23.5256 21.833 22.1696C21.8328 21.6464 21.8152 21.1302 21.7805 20.6357ZM19.5028 24.3296C18.9482 24.8574 18.212 25.114 17.2518 25.114H4.74773C3.78743 25.114 3.05116 24.8574 2.49678 24.3299C1.95294 23.8121 1.68864 23.1054 1.68864 22.1698C1.68864 21.6832 1.70466 21.2028 1.73682 20.7415C1.76807 20.289 1.83208 19.7919 1.92703 19.2636C2.02071 18.742 2.13995 18.2524 2.28182 17.8092C2.41796 17.3842 2.6036 16.9634 2.83382 16.558C3.05354 16.1716 3.30634 15.8402 3.5853 15.5731C3.84627 15.3233 4.17519 15.1188 4.5627 14.9655C4.9211 14.8236 5.32393 14.7459 5.76119 14.7342C5.81445 14.7626 5.9094 14.8167 6.06314 14.9169C6.37598 15.1208 6.73656 15.3534 7.13523 15.608C7.58462 15.8945 8.1635 16.1532 8.85518 16.3765C9.56229 16.6051 10.2835 16.7212 10.9993 16.7212C11.7152 16.7212 12.4366 16.6051 13.1433 16.3767C13.8355 16.153 14.4143 15.8945 14.8643 15.6076C15.2722 15.3469 15.6227 15.121 15.9355 14.9169C16.0893 14.8168 16.1842 14.7625 16.2375 14.7342C16.675 14.7459 17.0777 14.8236 17.4363 14.9654C17.8237 15.1188 18.1526 15.3235 18.4135 15.5731C18.6925 15.84 18.9453 16.1715 19.165 16.5582C19.3954 16.9634 19.5813 17.3844 19.7172 17.809C19.8593 18.2528 19.9787 18.7422 20.0723 19.2634C20.167 19.7927 20.2312 20.29 20.2625 20.7417V20.7421C20.2948 21.2015 20.311 21.6818 20.3112 22.1698C20.311 23.1056 20.0467 23.8122 19.5029 24.3296H19.5028Z" fill="white"/>
</svg>
